<?xml version="1.0" standalone="no"?><!DOCTYPE svg PUBLIC "-//W3C//DTD SVG 1.1//EN" "http://www.w3.org/Graphics/SVG/1.1/DTD/svg11.dtd"><svg t="1575293975209" class="icon" viewBox="0 0 1024 1024" version="1.1" xmlns="http://www.w3.org/2000/svg" p-id="2623" width="27" height="27" xmlns:xlink="http://www.w3.org/1999/xlink"><defs><style type="text/css"></style></defs><path d="M458.821 127.998q82.182 0 151.273 41.455 69.818 41.455 109.818 112.727 40.727 71.273 40.727 155.636 0 114.909-72.727 202.182 69.091 69.091 207.273 207.273 5.091 5.091 5.091 10.182 0 5.091-5.091 10.909-5.091 5.091-10.182 5.091-5.818 0-10.909-5.091-68.364-69.091-205.818-207.273-42.182 40.727-96 63.273-53.818 22.545-113.455 22.545-82.909 0-152-41.455-69.818-41.455-110.545-112-40-71.273-40-155.636 0-84.364 40-155.636 40.727-71.273 110.545-112.727 69.091-41.455 152-41.455zM458.094 157.817q-74.182 0-136.727 37.091-62.545 37.818-98.909 101.818-36.364 64-36.364 139.636 0 75.636 36.364 140.364 36.364 64 99.636 101.091 62.545 37.818 136.727 37.818 74.182 0 137.455-37.818 62.545-37.091 98.909-101.091 36.364-64.727 36.364-140.364 0-75.636-36.364-139.636-36.364-64-98.909-101.818-63.273-37.091-138.182-37.091z" p-id="2624" fill="#515151"></path></svg>