<?xml version="1.0" standalone="no"?><!DOCTYPE svg PUBLIC "-//W3C//DTD SVG 1.1//EN" "http://www.w3.org/Graphics/SVG/1.1/DTD/svg11.dtd"><svg t="1577953908025" class="icon" viewBox="0 0 1024 1024" version="1.1" xmlns="http://www.w3.org/2000/svg" p-id="7830" width="32" height="32" xmlns:xlink="http://www.w3.org/1999/xlink"><defs><style type="text/css"></style></defs><path d="M784 896h-32c-8.8 0-16-7.2-16-16s7.2-16 16-16h32c8.8 0 16 7.2 16 16s-7.2 16-16 16z" fill="#dbdbdb" p-id="7831"></path><path d="M880 128H672c-4.3 0-8.3 1.7-11.3 4.7L569.4 224H144c-44.1 0-80 35.9-80 80v512c0 44.1 35.9 80 80 80h544c8.8 0 16-7.2 16-16s-7.2-16-16-16H144c-26.5 0-48-21.5-48-48V384h832v432c0 26.5-21.5 48-48 48h-32c-8.8 0-16 7.2-16 16s7.2 16 16 16h32c44.1 0 80-35.9 80-80V208c0-44.1-35.9-80-80-80zM96 352v-48c0-26.5 21.5-48 48-48h432c4.2 0 8.3-1.7 11.3-4.7l91.3-91.3H880c26.5 0 48 21.5 48 48v144H96z" fill="#dbdbdb" p-id="7832"></path><path d="M610.9 784c-2.5 0-5.1-0.6-7.4-1.8l-91.5-48-91.5 48c-5.4 2.8-11.9 2.4-16.8-1.2-4.9-3.6-7.4-9.6-6.4-15.6l17.5-101.7-74-72c-4.4-4.3-5.9-10.6-4.1-16.4 1.9-5.8 6.9-10 12.9-10.9l102.2-14.8 45.7-92.5c5.4-10.9 23.3-10.9 28.7 0l45.7 92.5 102.2 14.8c6 0.9 11 5.1 12.9 10.9 1.9 5.8 0.3 12.1-4.1 16.4l-74 72 17.5 101.7c1 6-1.4 12.1-6.4 15.6-2.5 2-5.8 3-9.1 3zM512 700.1c2.6 0 5.1 0.6 7.4 1.8l70.2 36.9-13.4-78.1c-0.9-5.2 0.8-10.5 4.6-14.2l56.8-55.3-78.4-11.4c-5.2-0.8-9.7-4-12.1-8.8L512 500l-35.1 71c-2.3 4.7-6.8 8-12.1 8.8l-78.4 11.4 56.8 55.3c3.8 3.7 5.5 9 4.6 14.2l-13.4 78.1 70.2-36.9c2.3-1.2 4.8-1.8 7.4-1.8z" fill="#dbdbdb" p-id="7833"></path></svg>