<?xml version="1.0" standalone="no"?><!DOCTYPE svg PUBLIC "-//W3C//DTD SVG 1.1//EN" "http://www.w3.org/Graphics/SVG/1.1/DTD/svg11.dtd"><svg t="1573215657353" class="icon" viewBox="0 0 1024 1024" version="1.1" xmlns="http://www.w3.org/2000/svg" p-id="3293" width="64" height="64" xmlns:xlink="http://www.w3.org/1999/xlink"><defs><style type="text/css"></style></defs><path d="M825.6 938.666667H170.666667c-78.933333 0-145.066667-66.133333-145.066667-145.066667V332.8c0-78.933333 66.133333-145.066667 145.066667-145.066667h654.933333c81.066667 0 145.066667 66.133333 145.066667 145.066667v462.933333c0 78.933333-66.133333 142.933333-145.066667 142.933334zM170.666667 251.733333c-44.8 0-81.066667 36.266667-81.066667 81.066667v462.933333c0 42.666667 36.266667 78.933333 81.066667 78.933334h654.933333c44.8 0 81.066667-36.266667 81.066667-81.066667V332.8c0-44.8-36.266667-81.066667-81.066667-81.066667H170.666667z" fill="#ffffff" p-id="3294"></path><path d="M938.666667 439.466667H76.8c-17.066667 0-32-14.933333-32-32s14.933333-32 32-32H938.666667c17.066667 0 32 14.933333 32 32s-14.933333 32-32 32z" fill="#ffffff" p-id="3295"></path><path d="M275.2 311.466667c-17.066667 0-32-14.933333-32-32V117.333333c0-17.066667 14.933333-32 32-32s32 14.933333 32 32v164.266667c0 17.066667-14.933333 29.866667-32 29.866667zM721.066667 311.466667c-17.066667 0-32-14.933333-32-32V117.333333c0-19.2 14.933333-32 32-32s32 14.933333 32 32v164.266667c0 17.066667-14.933333 29.866667-32 29.866667z" fill="#ffffff" p-id="3296"></path></svg>