<?xml version="1.0" standalone="no"?><!DOCTYPE svg PUBLIC "-//W3C//DTD SVG 1.1//EN" "http://www.w3.org/Graphics/SVG/1.1/DTD/svg11.dtd"><svg t="1577957300821" class="icon" viewBox="0 0 1024 1024" version="1.1" xmlns="http://www.w3.org/2000/svg" p-id="8795" width="32" height="32" xmlns:xlink="http://www.w3.org/1999/xlink"><defs><style type="text/css"></style></defs><path d="M512 625.777778c-62.577778 0-113.777778-51.2-113.777778-113.777778s51.2-113.777778 113.777778-113.777778 113.777778 51.2 113.777778 113.777778-51.2 113.777778-113.777778 113.777778zM512 227.555556C449.422222 227.555556 398.222222 176.355556 398.222222 113.777778s51.2-113.777778 113.777778-113.777778 113.777778 51.2 113.777778 113.777778-51.2 113.777778-113.777778 113.777778z m0 568.888888c62.577778 0 113.777778 51.2 113.777778 113.777778s-51.2 113.777778-113.777778 113.777778-113.777778-51.2-113.777778-113.777778 51.2-113.777778 113.777778-113.777778z" p-id="8796" fill="#bbbbbb"></path></svg>