<?xml version="1.0" standalone="no"?><!DOCTYPE svg PUBLIC "-//W3C//DTD SVG 1.1//EN" "http://www.w3.org/Graphics/SVG/1.1/DTD/svg11.dtd"><svg class="icon" width="150px" height="150.00px" viewBox="0 0 1024 1024" version="1.1" xmlns="http://www.w3.org/2000/svg"><path d="M512.113587 960.438359c-6.737448 0-13.475919-2.572592-18.618033-7.723915-10.29139-10.293437-10.29139-26.974351 0-37.265742l263.312034-263.572978c10.286274-10.296507 26.950815-10.296507 37.237089 0 10.29139 10.293437 10.29139 26.974351 0 37.268812L530.73469 952.715467C525.589506 957.865767 518.851035 960.438359 512.113587 960.438359zM933.441495 538.725688 90.788749 538.725688c-14.543228 0-26.336832-11.806907-26.336832-26.358321 0-14.558577 11.793604-26.360368 26.336832-26.360368l779.073708 0L493.495554 109.287055c-10.29139-10.296507-10.29139-26.974351 0-37.270858 10.286274-10.296507 26.950815-10.296507 37.239136 0l421.324838 421.715741c7.53665 7.538697 9.798157 18.868743 5.706979 28.725228C953.705004 532.299325 944.085926 538.725688 933.441495 538.725688z" fill="#ffffff" /></svg>