<?xml version="1.0" standalone="no"?><!DOCTYPE svg PUBLIC "-//W3C//DTD SVG 1.1//EN" "http://www.w3.org/Graphics/SVG/1.1/DTD/svg11.dtd"><svg t="1573217984386" class="icon" viewBox="0 0 1024 1024" version="1.1" xmlns="http://www.w3.org/2000/svg" p-id="7968" xmlns:xlink="http://www.w3.org/1999/xlink" width="64" height="64"><defs><style type="text/css"></style></defs><path d="M672 896c-17.6 0-32-14.4-32-32V192c0-17.6-14.4-32-32-32H416c-17.6 0-32 14.4-32 32v672c0 17.6-14.4 32-32 32s-32-14.4-32-32V192c0-52.8 43.2-96 96-96h192c52.8 0 96 43.2 96 96v672c0 17.6-14.4 32-32 32z" p-id="7969" fill="#ffffff"></path><path d="M864 928H160c-52.8 0-96-43.2-96-96V576c0-52.8 43.2-96 96-96h64c17.6 0 32 14.4 32 32s-14.4 32-32 32h-64c-17.6 0-32 14.4-32 32v256c0 17.6 14.4 32 32 32h704c17.6 0 32-14.4 32-32V384c0-17.6-14.4-32-32-32h-64c-17.6 0-32-14.4-32-32s14.4-32 32-32h64c52.8 0 96 43.2 96 96v448c0 52.8-43.2 96-96 96z" p-id="7970" fill="#ffffff"></path></svg>