<?xml version="1.0" standalone="no"?><!DOCTYPE svg PUBLIC "-//W3C//DTD SVG 1.1//EN" "http://www.w3.org/Graphics/SVG/1.1/DTD/svg11.dtd"><svg t="1573134834283" class="icon" viewBox="0 0 1024 1024" version="1.1" xmlns="http://www.w3.org/2000/svg" p-id="3840" width="26" height="26" xmlns:xlink="http://www.w3.org/1999/xlink"><defs><style type="text/css"></style></defs><path d="M979.700499 1022.296173a42.595674 42.595674 0 0 1-29.816972-12.352745l-292.632279-292.63228A400.825291 400.825291 0 0 1 404.658902 809.317804 404.658902 404.658902 0 1 1 809.317804 404.658902a400.825291 400.825291 0 0 1-90.302829 255.574043l292.63228 292.206323A42.595674 42.595674 0 0 1 1022.296173 979.700499a42.595674 42.595674 0 0 1-42.595674 42.595674zM404.658902 85.191348A319.467554 319.467554 0 1 0 724.126456 404.658902 319.467554 319.467554 0 0 0 404.658902 85.191348z" p-id="3841" fill="#2c2c2c"></path></svg>